<?xml version="1.0" encoding="UTF-8"?>
<svg xmlns="http://www.w3.org/2000/svg" viewBox="0 0 55.1036 45.3598">
  <path
    fill="#ed6e6b"
    d="M54.3519,8.9888c-.2465-2.1917-.6662-4.3604-1.2551-6.4859-.4033-1.3138-.8545-2.2044-1.3459-2.442-.4931-.1445-1.0259-.0283-1.4141,.3085-1.4944,1.1563-2.7932,2.5451-3.847,4.1135-1.943,2.6722-3.6904,5.4813-5.2286,8.4053-.9128,1.4315-1.5385,3.0267-1.8426,4.697,2.7939,4.0209,6.3505,7.4538,10.4679,10.1035,.8428,.5725,1.7766,.9978,2.7617,1.2578,.7931,.1581,1.3969,.0027,1.6981-.6016,.2204-.5162,.3686-1.0602,.4404-1.6169,.5369-5.9102,.391-11.8625-.4349-17.7392Z"
  />
  <path
    fill="#ed6e6b"
    d="M24.5514,28.0424c.2018,.4796,.4688,.9291,.7934,1.3358,.4186,.4654,.9966,.4548,1.6662,.1174,.8159-.476,1.5451-1.087,2.1565-1.8071,3.0235-3.3861,6.3887-6.0466,7.8904-10.3305-.6849-1.4172-2.675-3.9745-3.8447-5.0278-2.0978-2.2322-4.3541-4.3099-6.7512-6.2169-1.3295-1.1407-2.8337-2.0603-4.455-2.7238-.4302-.2049-.9349-.1769-1.3398,.0742-.3803,.3338-.5631,1.2412-.5985,2.5149-.0005,2.0448,.161,4.0865,.483,6.1058,.7159,5.4553,2.058,10.81,3.9997,15.958Z"
  />
  <path
    fill="#ed6e6b"
    d="M11.1374,27.0996c-2.217-.2796-4.0921-.0885-6.1877,.3388-.3205,.0286-.9948,.2479-1.5,.4719C-.0297,29.4533-.0049,35.6161,.0005,35.9654c.0533,3.4131,1.6845,6.0079,2.8336,7.4371,.4836,.6015,1.1654,.9913,1.9289,1.1041,1.7727,.262,5.9189,1.1505,7.0325,.7518,2.077-.7437,1.6927-4.5652,1.771-9.244,.3046-3.1011-.1411-6.7996-2.4291-8.9149Zm-6.515,11.4337c0,.6345-.5143,1.1487-1.1487,1.1487s-1.1487-.5143-1.1487-1.1487v-4.7386c0-.6344,.5143-1.1487,1.1487-1.1487s1.1487,.5143,1.1487,1.1487v4.7386Zm3.7,0c0,.6345-.5143,1.1487-1.1487,1.1487s-1.1487-.5143-1.1487-1.1487v-4.7386c0-.6344,.5143-1.1487,1.1487-1.1487s1.1487,.5143,1.1487,1.1487v4.7386Z"
  />
</svg>
