<?xml version="1.0" encoding="UTF-8"?>
<svg xmlns="http://www.w3.org/2000/svg" viewBox="0 0 13.6517 18.3917">
  <path
    fill="#ed6e6b"
    d="M11.1374,.1315C8.9203-.1481,7.0453,.043,4.9497,.4703c-.3205,.0286-.9948,.2479-1.5,.4719C-.0297,2.4853-.0049,8.648,.0005,8.9973c.0533,3.4131,1.6845,6.0079,2.8336,7.4371,.4836,.6015,1.1654,.9913,1.9289,1.1041,1.7727,.262,5.9189,1.1505,7.0325,.7518,2.077-.7437,1.6927-4.5652,1.771-9.244,.3046-3.1011-.1411-6.7996-2.4291-8.9149ZM4.6224,11.5652c0,.6345-.5143,1.1487-1.1487,1.1487s-1.1487-.5143-1.1487-1.1487V6.8265c0-.6344,.5143-1.1487,1.1487-1.1487s1.1487,.5143,1.1487,1.1487v4.7386Zm3.7,0c0,.6345-.5143,1.1487-1.1487,1.1487s-1.1487-.5143-1.1487-1.1487V6.8265c0-.6344,.5143-1.1487,1.1487-1.1487s1.1487,.5143,1.1487,1.1487v4.7386Z"
  />
</svg>
