<svg viewBox="0 0 26.3277 16.9469" xmlns="http://www.w3.org/2000/svg">
  <path
    fill="#ed6e6b"
    d="M17.7046,6.4626l-.0381-.0251C16.3334,3.2433,13.5148,.9088,10.1282,.1942c-1.2709-.2633-2.5827-.2587-3.8517,.0133-1.1377,.2999-2.2047,.8222-3.1396,1.5367l-.0062-.0065c-.8629,.5754-3.1307,2.7119-3.1307,4.1623s.7891,7.7278,2.5144,6.0469c.9645-.9546,1.7679-5.9634,3-6.5321,.98-1.3177,2.8502-1.3384,3.9318-1.1865,1.3715,.2709,2.5938,1.0409,3.4303,2.1611l-.0219,.0697c-1.8923,.5797-3.4275,1.9731-4.1872,3.8006-.9383,2.1201-.1764,4.6075,1.7885,5.8382,2.1194,1.4023,4.9471,1.035,6.6379-.8623,1.0361-1.3125,1.6225-2.9235,1.6726-4.595l.0369-.0411c2.9787-.0519,5.7833,1.3998,7.4609,3.8618,.6797-4.16-4.2217-7.9092-8.5595-7.9987Zm-3.5967,5.9774c-.3181,.4502-.9396,.5601-1.3928,.2462-.2901-.1347-.424-.473-.3047-.7698,.3547-.8798,1.1448-1.509,2.0816-1.6578l.0535,.042c.1474,.7429-.0103,1.5139-.4376,2.1392v.0003Z"
  />
</svg>
