<?xml version="1.0" encoding="UTF-8"?>
<svg xmlns="http://www.w3.org/2000/svg" viewBox="0 0 35.0348 29.7393">
  <path
    fill="#ed6e6b"
    d="M34.2832,8.9888c-.2465-2.1917-.6662-4.3604-1.2551-6.4859-.4033-1.3138-.8545-2.2044-1.3459-2.442-.4931-.1445-1.0259-.0283-1.4141,.3085-1.4944,1.1563-2.7932,2.5451-3.847,4.1135-1.943,2.6722-3.6904,5.4813-5.2286,8.4053-.9128,1.4315-1.5385,3.0267-1.8426,4.697,2.7939,4.0209,6.3505,7.4538,10.4679,10.1035,.8428,.5725,1.7766,.9978,2.7617,1.2578,.7931,.1581,1.3969,.0027,1.6981-.6016,.2204-.5162,.3686-1.0602,.4404-1.6169,.5369-5.9102,.391-11.8625-.4349-17.7392Z"
  />
  <path
    fill="#ed6e6b"
    d="M4.4827,28.0424c.2018,.4796,.4688,.9291,.7934,1.3358,.4186,.4654,.9966,.4548,1.6662,.1174,.8159-.476,1.5451-1.087,2.1565-1.8071,3.0235-3.3861,5.3523-7.3333,6.854-11.6173-.6849-1.4172-1.6387-2.6878-2.8084-3.7411-2.0978-2.2322-4.3541-4.3099-6.7512-6.2169-1.3295-1.1407-2.8337-2.0603-4.455-2.7238-.4302-.2049-.9349-.1769-1.3398,.0742C.2182,3.7975,.0354,4.7049,0,5.9786c-.0005,2.0448,.161,4.0865,.483,6.1058,.7159,5.4553,2.058,10.81,3.9997,15.958Z"
  />
</svg>
